<svg width="37" height="47" viewBox="0 0 37 47" fill="none" xmlns="http://www.w3.org/2000/svg">
<path fill-rule="evenodd" clip-rule="evenodd" d="M19.5374 34.8313C19.2622 35.1064 18.8891 35.261 18.5 35.261C18.1109 35.261 17.7378 35.1064 17.4626 34.8313L9.16183 26.5306C9.02168 26.3952 8.9099 26.2333 8.833 26.0543C8.75609 25.8753 8.71562 25.6827 8.71392 25.4879C8.71223 25.2931 8.74936 25.0998 8.82314 24.9195C8.89691 24.7392 9.00587 24.5753 9.14364 24.4376C9.28141 24.2998 9.44525 24.1908 9.62558 24.1171C9.80591 24.0433 9.99913 24.0062 10.194 24.0079C10.3888 24.0095 10.5813 24.05 10.7604 24.1269C10.9394 24.2038 11.1013 24.3156 11.2367 24.4558L18.5 31.7191L25.7633 24.4558C26.0401 24.1885 26.4107 24.0406 26.7955 24.0439C27.1802 24.0473 27.5482 24.2016 27.8203 24.4736C28.0923 24.7457 28.2467 25.1137 28.25 25.4985C28.2534 25.8832 28.1055 26.2538 27.8382 26.5306L19.5374 34.8313Z" fill="#12DDCE"/>
<path fill-rule="evenodd" clip-rule="evenodd" d="M19.5374 23.0476C19.2622 23.3226 18.8891 23.4772 18.5 23.4772C18.1109 23.4772 17.7378 23.3226 17.4626 23.0476L9.16183 14.7468C9.02168 14.6114 8.9099 14.4495 8.833 14.2705C8.75609 14.0915 8.71562 13.8989 8.71392 13.7041C8.71223 13.5093 8.74936 13.3161 8.82314 13.1357C8.89691 12.9554 9.00587 12.7916 9.14364 12.6538C9.28141 12.516 9.44525 12.4071 9.62558 12.3333C9.80591 12.2595 9.99913 12.2224 10.194 12.2241C10.3888 12.2258 10.5813 12.2662 10.7604 12.3431C10.9394 12.42 11.1013 12.5318 11.2367 12.672L18.5 19.9353L25.7633 12.672C26.0401 12.4047 26.4107 12.2568 26.7955 12.2601C27.1802 12.2635 27.5482 12.4178 27.8203 12.6898C28.0923 12.9619 28.2467 13.3299 28.25 13.7147C28.2534 14.0994 28.1055 14.4701 27.8382 14.7468L19.5374 23.0476Z" fill="#12DDCE"/>
</svg>
