<svg width="40" height="40" viewBox="0 0 40 40" fill="none" xmlns="http://www.w3.org/2000/svg">
    <g transform="translate(5, 5)">
<path d="M16.2038 14.5L23.8163 6.89959C24.0439 6.67206 24.1717 6.36346 24.1717 6.04168C24.1717 5.7199 24.0439 5.41129 23.8163 5.18376C23.5888 4.95623 23.2802 4.8284 22.9584 4.8284C22.6366 4.8284 22.328 4.95623 22.1005 5.18376L14.5001 12.7963L6.89967 5.18376C6.67214 4.95623 6.36354 4.8284 6.04176 4.8284C5.71997 4.8284 5.41137 4.95623 5.18384 5.18376C4.95631 5.41129 4.82848 5.7199 4.82848 6.04168C4.82848 6.36346 4.95631 6.67206 5.18384 6.89959L12.7963 14.5L5.18384 22.1004C5.07058 22.2128 4.98069 22.3464 4.91935 22.4936C4.858 22.6409 4.82642 22.7988 4.82642 22.9583C4.82642 23.1179 4.858 23.2758 4.91935 23.423C4.98069 23.5703 5.07058 23.7039 5.18384 23.8163C5.29617 23.9295 5.42981 24.0194 5.57706 24.0808C5.72431 24.1421 5.88224 24.1737 6.04176 24.1737C6.20127 24.1737 6.35921 24.1421 6.50645 24.0808C6.6537 24.0194 6.78734 23.9295 6.89967 23.8163L14.5001 16.2038L22.1005 23.8163C22.2128 23.9295 22.3465 24.0194 22.4937 24.0808C22.641 24.1421 22.7989 24.1737 22.9584 24.1737C23.1179 24.1737 23.2759 24.1421 23.4231 24.0808C23.5704 24.0194 23.704 23.9295 23.8163 23.8163C23.9296 23.7039 24.0195 23.5703 24.0808 23.423C24.1422 23.2758 24.1738 23.1179 24.1738 22.9583C24.1738 22.7988 24.1422 22.6409 24.0808 22.4936C24.0195 22.3464 23.9296 22.2128 23.8163 22.1004L16.2038 14.5Z" fill="white"/>
    </g>
</svg>
