<svg width="110" height="110" viewBox="0 0 110 110" fill="none" xmlns="http://www.w3.org/2000/svg">
<g clip-path="url(#clip0_7_196)">
<path d="M96.25 68.75V82.5H110V91.6667H96.25V105.417H87.0833V91.6667H73.3333V82.5H87.0833V68.75H96.25ZM96.2866 13.75C98.7983 13.75 100.833 15.7896 100.833 18.3012V61.1508C97.8891 60.1109 94.7891 59.5807 91.6666 59.5833V22.9167H18.3333L18.3379 87.0833L60.9262 44.4904C61.7143 43.6997 62.7642 43.2242 63.8784 43.1533C64.9925 43.0824 66.0942 43.421 66.9762 44.1054L67.407 44.495L83.655 60.7658C80.1012 61.8487 76.8036 63.6401 73.961 66.0319C71.1183 68.4237 68.7894 71.3665 67.1148 74.6827C65.4403 77.9989 64.4546 81.6199 64.2173 85.3274C63.98 89.0348 64.496 92.7519 65.7341 96.2546L13.7133 96.25C12.507 96.2488 11.3506 95.7687 10.498 94.9153C9.6455 94.062 9.16663 92.905 9.16663 91.6987V18.3012C9.17501 17.0976 9.65659 15.9455 10.5073 15.0939C11.358 14.2423 12.5096 13.7596 13.7133 13.75H96.2866ZM36.6666 32.0833C39.0978 32.0833 41.4294 33.0491 43.1484 34.7682C44.8675 36.4873 45.8333 38.8188 45.8333 41.25C45.8333 43.6811 44.8675 46.0127 43.1484 47.7318C41.4294 49.4509 39.0978 50.4167 36.6666 50.4167C34.2355 50.4167 31.9039 49.4509 30.1848 47.7318C28.4657 46.0127 27.5 43.6811 27.5 41.25C27.5 38.8188 28.4657 36.4873 30.1848 34.7682C31.9039 33.0491 34.2355 32.0833 36.6666 32.0833Z" fill="#B6B6B6"/>
</g>
<defs>
<clipPath id="clip0_7_196">
<rect width="110" height="110" fill="white"/>
</clipPath>
</defs>
</svg>
