<svg width="30" height="30" viewBox="0 0 24 26"  fill="none" xmlns="http://www.w3.org/2000/svg">
    <g transform="translate(3, 2)">
        <path d="M5.95941 9.235C6.15447 9.19601 6.32606 9.08113 6.43643 8.91563C6.54679 8.75013 6.58689 8.54757 6.54791 8.3525C6.50892 8.15743 6.39404 7.98584 6.22854 7.87548C6.06304 7.76511 5.86047 7.72501 5.66541 7.764C4.76241 7.944 4.08041 8.576 3.71741 9.423C3.35741 10.261 3.30441 11.309 3.58541 12.431C3.60735 12.5285 3.64856 12.6207 3.70662 12.702C3.76469 12.7834 3.83843 12.8523 3.92351 12.9048C4.00859 12.9572 4.1033 12.9921 4.20207 13.0075C4.30084 13.0228 4.40168 13.0182 4.49866 12.994C4.59564 12.9698 4.6868 12.9265 4.7668 12.8666C4.84679 12.8067 4.914 12.7313 4.96447 12.6451C5.01494 12.5588 5.04766 12.4633 5.0607 12.3642C5.07374 12.2651 5.06684 12.1644 5.04041 12.068C4.82041 11.19 4.89241 10.488 5.09541 10.014C5.29541 9.548 5.61341 9.305 5.95941 9.235ZM3.03341 1.419C2.99073 2.12897 3.0947 2.84012 3.33883 3.50817C3.58295 4.17621 3.96202 4.78683 4.45241 5.302C3.49977 5.57514 2.64687 6.11888 1.9972 6.86724C1.34752 7.61561 0.929 8.53643 0.792406 9.518C0.463255 11.8732 0.946477 14.2703 2.16241 16.314L2.51241 16.904C2.52567 16.9257 2.54002 16.9467 2.55541 16.967L3.97141 18.873C4.27132 19.277 4.65569 19.6107 5.09773 19.851C5.53977 20.0912 6.02888 20.2323 6.53099 20.2643C7.0331 20.2963 7.53614 20.2184 8.0051 20.0362C8.47406 19.8539 8.89766 19.5716 9.24641 19.209C9.28718 19.1666 9.3361 19.1329 9.39023 19.1098C9.44435 19.0868 9.50258 19.0749 9.56141 19.0749C9.62023 19.0749 9.67846 19.0868 9.73258 19.1098C9.78671 19.1329 9.83563 19.1666 9.87641 19.209C10.2252 19.5716 10.6488 19.8539 11.1177 20.0362C11.5867 20.2184 12.0897 20.2963 12.5918 20.2643C13.0939 20.2323 13.583 20.0912 14.0251 19.851C14.4671 19.6107 14.8515 19.277 15.1514 18.873L16.5674 16.966C16.5825 16.9457 16.5965 16.9247 16.6094 16.903L16.9604 16.313C18.1771 14.2699 18.6614 11.8732 18.3334 9.518C18.2366 8.82401 17.9984 8.15729 17.6334 7.5591C17.2685 6.96091 16.7847 6.44398 16.212 6.04033C15.6392 5.63668 14.9897 5.35489 14.3036 5.21241C13.6175 5.06993 12.9095 5.06979 12.2234 5.212L10.3224 5.606H10.3194C10.3494 4.826 10.4714 3.986 10.7104 3.268C11.0004 2.4 11.4024 1.878 11.8504 1.692C12.0341 1.61535 12.1798 1.46888 12.2554 1.28482C12.3311 1.10075 12.3306 0.894162 12.2539 0.7105C12.1773 0.526837 12.0308 0.381145 11.8467 0.305474C11.6627 0.229803 11.4561 0.230352 11.2724 0.306999C10.2204 0.745999 9.62241 1.787 9.28741 2.793L9.24141 2.935C8.99514 2.45915 8.67708 2.02406 8.29841 1.645C7.77978 1.12579 7.15678 0.722684 6.47065 0.462368C5.78451 0.202051 5.05091 0.0904651 4.31841 0.135C3.98412 0.154241 3.66852 0.295506 3.43147 0.531997C3.19443 0.768489 3.05243 1.08376 3.03241 1.418L3.03341 1.419ZM4.52641 1.626C5.02821 1.61152 5.52768 1.69986 5.99407 1.88559C6.46047 2.07132 6.88393 2.35052 7.23841 2.706C7.59389 3.06048 7.87308 3.48394 8.05881 3.95033C8.24455 4.41673 8.33289 4.91619 8.31841 5.418C8.13704 5.42292 7.95555 5.41456 7.77541 5.393L7.15841 5.265C6.57196 5.09004 6.03848 4.7714 5.60641 4.338C5.25092 3.98352 4.97173 3.56006 4.786 3.09367C4.60026 2.62727 4.51192 2.12781 4.52641 1.626ZM6.59541 6.68L6.79741 6.722C7.03741 6.79 7.28141 6.841 7.52741 6.874L8.49741 7.074C9.19995 7.21954 9.92486 7.21954 10.6274 7.074L12.5294 6.68C13.0146 6.57945 13.5152 6.57956 14.0003 6.68033C14.4854 6.7811 14.9447 6.98037 15.3496 7.26582C15.7546 7.55127 16.0967 7.91681 16.3546 8.33982C16.6126 8.76282 16.781 9.23428 16.8494 9.725C17.1302 11.7427 16.7151 13.7959 15.6724 15.546L15.3414 16.103L13.9484 17.979C13.7784 18.208 13.5605 18.3972 13.3099 18.5334C13.0594 18.6696 12.7821 18.7495 12.4975 18.7676C12.2129 18.7856 11.9277 18.7415 11.6619 18.6381C11.3961 18.5347 11.156 18.3746 10.9584 18.169C10.7777 17.981 10.561 17.8314 10.3211 17.7292C10.0812 17.627 9.82315 17.5744 9.56241 17.5744C9.30166 17.5744 9.04361 17.627 8.80372 17.7292C8.56384 17.8314 8.34706 17.981 8.16641 18.169C7.96879 18.3746 7.72871 18.5347 7.46291 18.6381C7.1971 18.7415 6.91196 18.7856 6.62733 18.7676C6.34271 18.7495 6.06545 18.6696 5.81487 18.5334C5.56428 18.3972 5.3464 18.208 5.17641 17.979L3.78341 16.103L3.45241 15.546C2.41009 13.7958 1.99529 11.7426 2.27641 9.725C2.34481 9.23438 2.51318 8.76303 2.77109 8.3401C3.029 7.91718 3.37097 7.55169 3.77583 7.26625C4.18069 6.98082 4.63982 6.78151 5.12481 6.68067C5.6098 6.57983 6.11032 6.5796 6.59541 6.68Z" fill="black"/>
    </g>
</svg>
