<svg width="35" height="35" viewBox="5 -5 45 45" fill="none" xmlns="http://www.w3.org/2000/svg">
<path d="M34.0598 37.6939C38.2645 34.4056 40.9688 29.2846 40.9688 23.5346C40.9688 13.6113 32.9502 5.58378 23.027 5.5703C13.0902 5.55682 5.03125 13.6023 5.03125 23.5346C5.03125 29.1588 7.61426 34.1765 11.6617 37.4693C11.8189 37.5951 12.048 37.5681 12.1738 37.4109L13.9437 35.1424C14.065 34.9896 14.0381 34.7695 13.8898 34.6437C13.526 34.3473 13.1756 34.0283 12.8387 33.6914C11.5252 32.3825 10.4786 30.8309 9.75703 29.1228C9.00234 27.3574 8.625 25.4752 8.625 23.5346C8.625 21.5939 9.00234 19.7117 9.75254 17.9418C10.4758 16.2303 11.5135 14.6939 12.8342 13.3732C14.1549 12.0525 15.6912 11.0148 17.4027 10.2916C19.1771 9.54139 21.0594 9.16405 23 9.16405C24.9406 9.16405 26.8229 9.54139 28.5928 10.2916C30.3043 11.0148 31.8406 12.0525 33.1613 13.3732C34.482 14.6939 35.5197 16.2303 36.243 17.9418C36.9932 19.7117 37.3705 21.5939 37.3705 23.5346C37.3705 25.4752 36.9932 27.3574 36.243 29.1273C35.5214 30.8354 34.4748 32.387 33.1613 33.6959C32.7436 34.1137 32.3033 34.5045 31.8451 34.8639L30.0168 32.5234C29.9754 32.4699 29.9198 32.4292 29.8562 32.4059C29.7927 32.3826 29.7239 32.3777 29.6578 32.3918C29.5916 32.4059 29.5307 32.4384 29.4822 32.4855C29.4337 32.5326 29.3994 32.5925 29.3834 32.6582L27.6045 39.9445C27.5506 40.1691 27.7213 40.3892 27.9504 40.3892L35.4523 40.4252C35.7533 40.4252 35.924 40.0793 35.7354 39.8457L34.0598 37.6939Z" fill="#FFFFFF"/>
</svg>
