<svg xmlns="http://www.w3.org/2000/svg" width="21" height="21" viewBox="0 0 21 21" fill="none">
  <path d="M18.3749 18.3751L14.5748 14.5749M14.5748 14.5749C15.2248 13.9249 15.7405 13.1532 16.0923 12.3039C16.4441 11.4546 16.6251 10.5443 16.6251 9.62506C16.6251 8.70578 16.4441 7.79551 16.0923 6.94621C15.7405 6.0969 15.2248 5.32521 14.5748 4.67518C13.9248 4.02516 13.1531 3.50953 12.3038 3.15773C11.4545 2.80594 10.5442 2.62488 9.62494 2.62488C8.70566 2.62488 7.79538 2.80594 6.94608 3.15773C6.09678 3.50953 5.32509 4.02516 4.67506 4.67518C3.36227 5.98797 2.62476 7.76849 2.62476 9.62506C2.62476 11.4816 3.36227 13.2621 4.67506 14.5749C5.98785 15.8877 7.76837 16.6252 9.62494 16.6252C11.4815 16.6252 13.262 15.8877 14.5748 14.5749Z" stroke="white" stroke-width="2.5" stroke-linecap="round" stroke-linejoin="round"/>
</svg>